<?xml version="1.0" encoding="utf-8"?>
<!-- Generator: Adobe Illustrator 25.2.1, SVG Export Plug-In . SVG Version: 6.00 Build 0)  -->
<svg version="1.1" id="Layer_1" xmlns="http://www.w3.org/2000/svg" xmlns:xlink="http://www.w3.org/1999/xlink" x="0px" y="0px"
	 viewBox="0 0 900 900" style="enable-background:new 0 0 900 900;" xml:space="preserve">
<path d="M450,0C201.5,0,0,201.5,0,450s201.5,450,450,450s450-201.5,450-450S698.5,0,450,0z M519.5,509.7l17.9,40.5l17.1,40.1
	c23.9,56.4,46,84.6,66.4,84.6c29.7,0,51.3-22.7,64.8-68.1c9.8,4.2,14.7,10,14.7,17.1c0,11.7-8,29.9-23.9,54.5
	c-23.9,36.9-51,55.3-81.2,55.3c-21.8,0-41.2-11.9-58.3-35.8c-17.1-23.9-41.2-72.8-72.3-146.8l-21.9-52.9l-8.8,17.1
	c-76.2,145.6-153.4,218.4-231.7,218.4c-16.7,0-34.9-4.5-54.6-13.5l58.5-56.9c10.4,5.6,21.5,8.4,33.4,8.4
	c34.8,0,70.9-26.5,108.3-79.6c31.3-44,55.1-82.9,71.3-116.6l8-15.9l-24.7-58.1l-15.1-37.4c-5.3-13-11.8-27.3-19.5-43
	c-10.1-21.5-16.1-34.2-17.9-38.2C335.4,249,320.9,232,306.6,232c-26,0-48,25.1-66.1,75.3c-8.5-2.1-12.7-7.7-12.7-16.7
	c0-25.2,12.2-52.3,36.6-81.2s47.5-43.4,69.3-43.4c17.3,0,32.8,9.9,46.6,29.8c13.8,19.9,33.9,61.3,60.1,124.1l31.4,75.7l13.5-23.9
	l25.5-45C571.9,220,633.1,166.5,694.5,166.5c20.4,0,39.7,4.2,57.7,12.7l-57.3,57.3c-11.1-6.4-20.8-9.6-29-9.6
	c-24.1,0-48.1,13.3-72,39.8s-55.2,74.7-93.9,144.4l-12.3,22L519.5,509.7z"/>
</svg>
