<?xml version="1.0" encoding="utf-8"?>
<!-- Generator: Adobe Illustrator 25.2.1, SVG Export Plug-In . SVG Version: 6.00 Build 0)  -->
<svg version="1.1" id="Layer_1" xmlns="http://www.w3.org/2000/svg" xmlns:xlink="http://www.w3.org/1999/xlink" x="0px" y="0px"
	 viewBox="0 0 900 900" style="enable-background:new 0 0 900 900;" xml:space="preserve">
<path d="M450,0C201.5,0,0,201.5,0,450s201.5,450,450,450s450-201.5,450-450S698.5,0,450,0z M688.3,252.9c-1,0.5-2,0.8-3,0.8
	c-3.5,0-7.1-1.5-10.6-4.6c-3.5-3-7.3-6.3-11.4-9.9c-4.1-3.5-8.2-6.8-12.5-9.9c-4.3-3-9-4.6-14-4.6c-7.6,0-17.2,10.6-28.9,31.9
	s-27.2,53.5-46.7,96.8s-44,97.8-73.7,163.7C457.9,582.9,421,660.4,377,749.5c-1,1.5-3,2.4-6.1,2.7c-3,0.2-6.6,0.4-10.6,0.4
	c-4.1,0-6.8-0.6-8.4-1.9c-1.5-1.3-2.8-3.4-3.8-6.5c-3-9.1-7.7-22-14-38.7s-13.4-34.8-21.3-54.3s-16.5-39.4-25.8-59.6
	c-9.4-20.2-18.9-38.7-28.5-55.4S239.4,506,230,495.6S211.9,480,203.8,480c-3,0-6,0.5-8.7,1.5c-2.8,1-5.4,2-8,3c-1,0-2.3-0.9-3.8-2.7
	c-1.5-1.8-2.5-3.2-3-4.2c0-0.5,0.1-0.8,0.4-0.8c0.2,0,0.4-0.2,0.4-0.8c0.5-0.5,4.9-3.8,13.3-9.9c8.4-6.1,18.2-12.8,29.6-20.1
	c11.4-7.3,22.9-14,34.6-20.1c11.6-6.1,21.3-9.1,28.9-9.1c5.6,0,11,4.9,16.3,14.8s11.8,24.8,19.4,44.8s16.6,45.2,27,75.6
	c10.4,30.4,23.2,66.3,38.4,107.8c18.2-33.4,35.3-69.2,51.3-107.5c15.9-38.2,31-76.2,45.2-113.9s27.6-73.9,40.2-108.6
	s24.6-65.3,35.7-91.9c11.1-26.6,21.9-47.7,32.3-63.4c10.4-15.7,20.6-23.5,30.8-23.5c9.1,0,18.7,7.3,28.9,22c3,4.6,6.6,10,10.6,16.3
	s7.8,12.9,11.4,19.7c3.5,6.8,6.7,13.7,9.5,20.5s4.7,13,5.7,18.6C689.8,250.8,689.3,252.4,688.3,252.9z"/>
</svg>
